# xmcd CD database file
#
# Track frame offsets:
#	150
#	18490
#	37688
#	56638
#	67894
#	89086
#	118715
#	134730
#	155663
#	168801
#	186630
#	230008
#	255205
#
# Disc length: 3640 seconds
#
# Revision: 0
# Processed by: cddbd v1.4PL0 Copyright (c) Steve Scherf et al.
# Submitted via: CDex 1.40Release
#
DISCID=b10e360d
DTITLE=The Night Time Heroes Blues Band - This Time - Live at De Blauwe Wolk !!!
DYEAR=2002
DGENRE=Blues
TTITLE0=Messing With the Kid
TTITLE1=Some Day, Some Way
TTITLE2=Red Headed Woman
TTITLE3=This Time - Part 1
TTITLE4=This Time - Part 2
TTITLE5=My Turn to Suffer
TTITLE6=Mad About Her Blues
TTITLE7=Rock Me, Baby
TTITLE8=Big Legs
TTITLE9=I'm Ready
TTITLE10=Long Time Ago
TTITLE11=Hoochie Coochie Man
TTITLE12=Back to Belgium
EXTD=YEAR: 2002 ID3G: 0
EXTT0=
EXTT1=
EXTT2=
EXTT3=
EXTT4=
EXTT5=
EXTT6=
EXTT7=
EXTT8=
EXTT9=
EXTT10=
EXTT11=
EXTT12=
PLAYORDER=
